<svg id="Layer_1" data-name="Layer 1" xmlns="http://www.w3.org/2000/svg" viewBox="0 0 272.57 241.26"><defs><style>.cls-1{fill:#fff;}</style></defs><path class="cls-1" d="M191.21,148.17c31.41-34.43,42.32-73.53,24.59-91.26h0c-9.63-9.62-25.49-11.25-44.67-4.59-11.44,4-23.4,10.68-34.92,19.45-31.13-23.67-63.64-30.55-79.44-15h0l-.08.08s0,0-.07.07h0s0,0-.07.08c-5.6,5.73-8.28,13.65-8.27,22.89,0,19.49,11.86,44.88,33.08,68.14-3.48,15.07-1.49,28.14,6.85,36.47h0C94,190.26,102,193,111.33,193c7.64,0,16.18-1.83,25.14-5.32,19.64,7.55,37.2,7.07,47.61-3.06l.13-.1.07-.08.08-.07h0C192.42,176.16,194.76,163.5,191.21,148.17ZM136.21,90q3.85,3.41,7.7,7.22c14.91,14.91,26.09,31.62,31.5,47.07-13.14,13.12-26.75,22.45-39,28.11-12.32-5.65-26.06-15-39.32-28.29,4.93-14.08,15.34-30.84,31.39-46.89Q132.29,93.44,136.21,90Zm39.55-24.35c13.6-4.72,24.55-4.26,30.06,1.24h0c9.78,9.78,3.42,37.64-19.84,65.79-6.69-15.33-17.88-31.22-32.09-45.44Q150.67,84,147.37,81A111.6,111.6,0,0,1,175.76,65.65ZM66.69,66.81c9-8.8,32.91-4.25,58.36,14.23q-3.31,3-6.52,6.2c-14.63,14.63-25.5,30.43-32,45.28C63.37,104.43,57,76.64,66.69,66.81Zm31.5,107.72h0c-3.09-3.09-4.57-8-4.41-14.14a159.26,159.26,0,0,0,24,18C109.08,179.79,102.15,178.49,98.19,174.53Zm56.95,3.79a159.83,159.83,0,0,0,23.57-17.71c.11,6-1.37,10.75-4.41,13.84C170.39,178.3,163.63,179.6,155.14,178.32Z"/></svg>