<svg width="15" height="16" viewBox="0 0 20 21" fill="none" xmlns="http://www.w3.org/2000/svg">
<g clip-path="url(#clip0)">
<path d="M14.8794 8.67999C17.6794 6.51999 23.4394 -1.20001 14.4394 0.159987C10.5194 0.719987 4.75941 4.27999 3.59941 8.35999C2.99422 7.26898 2.32643 6.21389 1.59941 5.19999C0.519409 3.79999 -0.720591 4.87999 0.479409 6.31999C3.87941 10.44 6.23941 15.4 6.23941 20.4C6.51941 17.92 6.07941 14.88 5.03941 11.92C5.55941 12.08 6.11941 12.16 6.63941 12.16C8.47941 14.96 11.2794 17.36 14.4394 18.48C17.3194 19.56 21.1594 18.92 19.5994 14.6C18.7594 12.24 16.7994 10.16 14.8794 8.67999ZM15.2794 1.15999C20.2794 0.639987 14.9194 6.43999 13.1594 7.51999C11.5194 6.51999 9.47941 5.63999 7.47941 5.87999C8.91941 4.15999 12.3994 1.47999 15.2794 1.15999ZM7.43941 7.15999C8.79941 7.03999 10.2794 7.75999 11.3994 8.47999C10.3194 8.99999 9.11941 9.31999 7.87941 9.39999C6.03941 9.39999 5.67941 7.31999 7.43941 7.15999ZM14.3594 16.2C11.9994 15.56 9.79941 13.8 8.19941 12C9.51941 11.76 10.7994 11.28 11.9994 10.6C12.4394 10.4 12.8794 10.12 13.2794 9.83999C14.6794 11.04 16.1194 12.64 16.6794 14.44C17.2394 16.4 15.7194 16.56 14.3594 16.2Z" fill="#F5A623"/>
</g>
<defs>
<clipPath id="clip0">
<rect width="20" height="20.2" fill="white"/>
</clipPath>
</defs>
</svg>
