<?xml version="1.0" encoding="utf-8"?>
<!-- Generator: Adobe Illustrator 26.3.1, SVG Export Plug-In . SVG Version: 6.00 Build 0)  -->
<svg version="1.1" id="Layer_1" xmlns="http://www.w3.org/2000/svg" xmlns:xlink="http://www.w3.org/1999/xlink" x="0px" y="0px"
	 viewBox="0 0 128 128" style="enable-background:new 0 0 128 128;" xml:space="preserve">
<style type="text/css">
	.st0{fill:#2A3362;}
	.st1{fill:#009E3A;}
	.st2{fill:#FF4500;}
	.st3{fill:#FFABCC;}
	.st4{fill:#FF9500;}
</style>
<rect class="st0" width="128" height="128"/>
<g>
	<g>
		<path class="st1" d="M37.4,56.4c0-3.1,0.9-5.8,2.8-7.7l3.3,3.3c-3.7,3.7-0.5,15.1,10.1,25.6c10.5,10.5,21.9,13.7,25.6,10.1
			l3.3,3.3c-6.2,6.2-20.4,1.8-32.2-10.1C42,72.8,37.4,63.4,37.4,56.4z"/>
	</g>
	<g>
		<path class="st2" d="M58.3,93.9c-3.1,0-5.8-0.9-7.7-2.8l3.3-3.3c3.7,3.7,15.1,0.5,25.6-10.1c10.5-10.5,13.7-21.9,10.1-25.6
			l3.3-3.3C99.2,55,94.7,69.2,82.9,81C74.7,89.3,65.3,93.9,58.3,93.9z"/>
	</g>
	<path class="st3" d="M84,76.3c-2-5.8-6.1-12-11.6-17.4C60.6,47,46.4,42.6,40.2,48.8l0,0l0,0c-0.4,0.4-0.1,1.5,0.9,2.5
		c0.9,0.9,2,1.3,2.5,0.9c3.7-3.7,15.1-0.5,25.6,10.1c5,5,8.7,10.5,10.5,15.7c1.6,4.5,1.4,8.1-0.4,10l0,0l0,0
		c-0.4,0.4-0.1,1.5,0.9,2.5c0.9,0.9,2,1.3,2.5,0.9C85.6,87.9,86.2,82.6,84,76.3z"/>
	<path class="st4" d="M92.9,48.8c-3.2-3.2-8.4-3.7-14.8-1.5c-5.8,2-12,6.1-17.4,11.6c-11.9,11.9-16.3,26-10.1,32.2h0c0,0,0,0,0,0
		c0.4,0.4,1.5,0.1,2.5-0.9c0.9-0.9,1.3-2,0.9-2.5c-3.7-3.7-0.5-15.1,10.1-25.6c5-5,10.5-8.7,15.7-10.5c4.5-1.6,8.1-1.4,10,0.4h0
		c0,0,0,0,0,0c0.4,0.4,1.5,0.1,2.5-0.9C93,50.3,93.4,49.2,92.9,48.8z"/>
</g>
</svg>
